<?xml version="1.0" encoding="UTF-8"?>
<svg version="1.1" xmlns="http://www.w3.org/2000/svg" width="500" height="500">
<path d="M0 0 C165 0 330 0 500 0 C500 165 500 330 500 500 C335 500 170 500 0 500 C0 335 0 170 0 0 Z " fill="#FEFEFE" transform="translate(0,0)"/>
<path d="M0 0 C2.94850866 1.79787113 3.7294986 2.95919659 4.58984375 6.26953125 C5.30700516 10.82521375 5.34892146 13.30215708 3.25 17.5 C1 20 1 20 -2 22 C-8.33333333 22.33333333 -8.33333333 22.33333333 -11 21 C-19.6453731 19.83619978 -26.07520635 22.26668869 -32.9375 27.46875 C-42.76598096 36.41968801 -47.79684719 49.15665823 -48.4375 62.25 C-48.21684037 68.48864954 -46.004261 73.04713031 -41.5625 77.375 C-35.48291031 81.23034956 -30.06758186 81.67458564 -23 81 C-18.77313843 79.49040658 -16.25197442 77.91132399 -14 74 C-13.64208946 72.67305278 -13.30495183 71.34010942 -13 70 C-13.58007812 70.28875 -14.16015625 70.5775 -14.7578125 70.875 C-23.14824798 74.86253369 -23.14824798 74.86253369 -28 74 C-32.01273771 72.03297171 -33.69515682 70.54871773 -35.875 66.625 C-37.00383495 62.98764293 -37.6377981 60.74706384 -37 57 C-33.33672519 51.33857529 -29.38841043 49.09902398 -22.76953125 47.44140625 C-13.99053787 46.04221549 -3.94320973 45.72288707 4 50 C5.36199705 51.30403972 6.70098472 52.63321001 8 54 C8.18175781 52.081875 8.18175781 52.081875 8.3671875 50.125 C8.5361466 48.41663581 8.70543499 46.70830416 8.875 45 C8.95363281 44.16082031 9.03226562 43.32164062 9.11328125 42.45703125 C10.64292482 27.27826041 15.83203801 13.77920991 27.66015625 3.76171875 C37.86602952 -3.92250303 49.66042945 -4.13848748 62 -3 C72.03036571 -0.8052165 80.19096207 4.12226044 85.8125 12.796875 C89.33374067 19.33148509 91.16004104 25.64311804 92 33 C92.36351562 31.9378125 92.72703125 30.875625 93.1015625 29.78125 C98.35804959 14.83366717 98.35804959 14.83366717 104 9 C104.57234375 8.38898438 105.1446875 7.77796875 105.734375 7.1484375 C114.11006407 -0.98497957 123.20046707 -3.47461129 134.625 -3.5625 C142.02730099 -3.45355681 148.61328402 -3.08846591 155 1 C155.78375 1.49757813 156.5675 1.99515625 157.375 2.5078125 C165.87652435 8.52040373 170.13218169 16.55367097 174 26 C174.03738281 24.75863281 174.07476562 23.51726562 174.11328125 22.23828125 C174.1789595 20.59632489 174.2454062 18.95439913 174.3125 17.3125 C174.34633789 16.08756836 174.34633789 16.08756836 174.38085938 14.83789062 C174.64081194 9.000774 175.5014138 5.36408674 179.88671875 1.21484375 C185.97669778 -2.28604992 194.048293 0.07379885 200.4375 1.6875 C214.28911305 5.57674831 230.19186701 11.6904045 238.01025391 24.67822266 C244.50660097 36.53004887 247.35871812 48.11322357 244.1640625 61.50390625 C241.39213653 68.63836 237.17752237 74.41295609 232 80 C231.14341797 80.93779297 231.14341797 80.93779297 230.26953125 81.89453125 C221.36394003 90.60353105 208.61850622 95.02356384 197.0625 99 C196.19923096 99.30292969 195.33596191 99.60585938 194.4465332 99.91796875 C189.00134335 101.70420487 183.74437119 102.86882236 178 102 C175.12970131 100.20606332 173.50868362 99.01736724 172 96 C171.91341431 93.44637396 171.88437484 90.9204558 171.90234375 88.3671875 C171.90446617 87.23943405 171.90446617 87.23943405 171.90663147 86.08889771 C171.91223535 83.6842249 171.92478843 81.27964473 171.9375 78.875 C171.9425145 77.24609509 171.9470775 75.61718873 171.95117188 73.98828125 C171.96220603 69.99215173 171.97947321 65.99609158 172 62 C171.67749268 62.95406738 171.35498535 63.90813477 171.02270508 64.89111328 C170.58452589 66.15931062 170.14594667 67.42736978 169.70703125 68.6953125 C169.06858276 70.55953857 169.06858276 70.55953857 168.41723633 72.46142578 C166.4131396 77.46528074 163.62325472 81.07227009 160 85 C159.42765625 85.68578125 158.8553125 86.3715625 158.265625 87.078125 C151.52679214 94.62331393 141.04672254 100.54367426 130.86328125 101.203125 C118.75232672 101.36300559 112.38970964 99.83380531 103.359375 91.64453125 C97.96167102 85.59445577 95.06063614 79.18921156 92.6875 71.5 C92.42388672 70.67757812 92.16027344 69.85515625 91.88867188 69.0078125 C91.2492994 67.0083204 90.62322042 65.00458528 90 63 C89.72027344 63.83402344 89.44054687 64.66804688 89.15234375 65.52734375 C86.43567189 73.15324257 83.43141227 79.00947176 78 85 C77.42765625 85.68707031 76.8553125 86.37414062 76.265625 87.08203125 C69.05302741 95.14226317 58.54854572 100.44388733 47.765625 101.23828125 C36.81045819 101.46955699 29.90643045 99.4928703 21.85546875 91.98828125 C16.87102021 86.64705113 13.52159787 81.15151001 12 74 C11.34 74 10.68 74 10 74 C9.9071875 75.175625 9.9071875 75.175625 9.8125 76.375 C7.53221794 86.5485661 1.58472811 94.55562329 -7.04296875 100.37890625 C-17.2219876 105.88492243 -29.06504629 106.56725292 -40.09204102 103.51245117 C-51.10156656 100.16328757 -60.18949096 95.17627774 -66.18359375 84.98828125 C-67.21174784 83.01106184 -68.15236842 81.06128589 -69 79 C-69.35707031 78.1440625 -69.71414062 77.288125 -70.08203125 76.40625 C-73.65321297 63.15488633 -71.60358037 48.30054229 -66 36 C-65.72124023 35.37544922 -65.44248047 34.75089844 -65.15527344 34.10742188 C-57.58412115 17.48945528 -45.38746185 4.6219914 -28.2109375 -2.08984375 C-19.2105226 -4.64105625 -8.52748857 -3.89002965 0 0 Z " fill="#030303" transform="translate(130,311)"/>
<path d="M0 0 C1.14103935 -0.0049926 1.14103935 -0.0049926 2.30513 -0.01008606 C3.90775962 -0.01512187 5.51039959 -0.01749543 7.11303711 -0.01733398 C9.52671236 -0.01950956 11.93992162 -0.03767087 14.35351562 -0.05664062 C38.32146446 -0.14554801 38.32146446 -0.14554801 46.86328125 6.16796875 C49.4602978 10.35840902 49.61678194 14.37371709 48.86328125 19.16796875 C46.66578113 23.64145115 46.66578113 23.64145115 43.86328125 25.16796875 C37.17571568 26.14663688 30.50972821 25.03739587 23.86328125 24.16796875 C23.78980469 25.67230469 23.78980469 25.67230469 23.71484375 27.20703125 C23.55053604 30.55227518 23.38132772 33.89724825 23.2109375 37.2421875 C22.97746226 41.83851345 22.7553717 46.43525398 22.5390625 51.03240967 C22.38007381 54.38019813 22.21507439 57.72767791 22.04925537 61.07513428 C21.96778682 62.74465557 21.88867517 64.41429377 21.81207275 66.08404541 C20.52160769 94.10487154 20.52160769 94.10487154 16.36328125 98.41796875 C11.93519909 101.51762627 8.20714305 102.02630925 2.86328125 101.16796875 C-0.13671875 98.73046875 -0.13671875 98.73046875 -2.13671875 96.16796875 C-2.46671875 95.83796875 -2.79671875 95.50796875 -3.13671875 95.16796875 C-3.8426061 83.15509177 -2.6924516 71.00484321 -1.90991211 59.02294922 C-1.6982839 55.77863732 -1.49409413 52.53391973 -1.29101562 49.2890625 C-1.1579838 47.19919122 -1.02453499 45.10934644 -0.890625 43.01953125 C-0.83016495 42.06309723 -0.7697049 41.10666321 -0.70741272 40.12124634 C-0.33412527 34.44663785 0.19404656 28.81551581 0.86328125 23.16796875 C-0.3896875 23.26335937 -1.64265625 23.35875 -2.93359375 23.45703125 C-4.58459535 23.56959954 -6.23563942 23.68154622 -7.88671875 23.79296875 C-8.71171875 23.85742188 -9.53671875 23.921875 -10.38671875 23.98828125 C-11.1859375 24.03984375 -11.98515625 24.09140625 -12.80859375 24.14453125 C-13.9083252 24.2230835 -13.9083252 24.2230835 -15.03027344 24.30322266 C-17.48447316 24.1456396 -19.02525088 23.39061714 -21.13671875 22.16796875 C-21.08451172 23.58722656 -21.08451172 23.58722656 -21.03125 25.03515625 C-20.46162482 47.50082818 -25.2541288 69.39527688 -40.82421875 86.48046875 C-49.73534584 94.97224869 -60.2777211 97.66843258 -72.17578125 97.44140625 C-77.12994182 97.09940305 -80.25562979 96.21608815 -84.13671875 93.16796875 C-84.72453125 92.72839844 -85.31234375 92.28882813 -85.91796875 91.8359375 C-97.98956404 81.37918281 -101.39135909 63.20930403 -103.13671875 48.16796875 C-103.42211609 43.03916157 -103.46204547 37.92878898 -103.44921875 32.79296875 C-103.46533203 31.47941406 -103.48144531 30.16585937 -103.49804688 28.8125 C-103.50412984 16.8047221 -103.50412984 16.8047221 -100.13671875 11.16796875 C-96.68365647 8.10954216 -93.52562465 7.69831399 -89.06640625 7.875 C-86.21760554 8.30751023 -84.37468271 9.39076208 -82.13671875 11.16796875 C-79.73256811 14.77419471 -79.84650088 16.56192439 -79.7578125 20.85546875 C-79.74081802 21.51321289 -79.72382355 22.17095703 -79.70631409 22.84863281 C-79.65326638 24.95497988 -79.6130344 27.06131539 -79.57421875 29.16796875 C-79.30423425 50.97061877 -79.30423425 50.97061877 -72.44921875 71.48046875 C-69.7695263 73.43592 -68.92573013 73.42277738 -65.69921875 73.23046875 C-59.71929793 72.14587527 -56.74236814 69.19976175 -53.13671875 64.48046875 C-45.39303709 52.04243085 -44.5881029 39.31017197 -45.14501953 24.99047852 C-45.19891846 23.38450806 -45.19891846 23.38450806 -45.25390625 21.74609375 C-45.30144043 20.7912207 -45.34897461 19.83634766 -45.39794922 18.85253906 C-45.08084074 15.59373086 -44.05516782 13.79345867 -42.13671875 11.16796875 C-38.20650201 9.20286038 -33.42067513 9.69265947 -29.13671875 10.16796875 C-25.94921875 12.16796875 -25.94921875 12.16796875 -24.13671875 14.16796875 C-23.98976563 13.5646875 -23.8428125 12.96140625 -23.69140625 12.33984375 C-22.50650412 8.11777871 -21.69535812 5.67582272 -18.38671875 2.66796875 C-12.52623328 -0.0368707 -6.36418524 0.00992348 0 0 Z " fill="#040404" transform="translate(348.13671875,71.83203125)"/>
<path d="M0 0 C4.36350222 2.22291622 7.09544338 4.45022584 9 9 C9.35370661 12.74929007 9.08758465 15.66583694 8.1328125 19.30859375 C6.49031738 25.70178041 5.57272039 32.23337246 4.5625 38.75 C4.39867325 39.79779633 4.39867325 39.79779633 4.23153687 40.86676025 C1.71885678 57.02085048 -0.06971326 73.24480807 -1.484375 89.53125 C-1.60099487 90.77479248 -1.60099487 90.77479248 -1.7199707 92.04345703 C-1.85842883 93.52749192 -1.9834612 95.01288581 -2.09057617 96.49951172 C-2.54631329 101.28564506 -4.05394634 104.23716283 -7 108 C-9.92710793 110.29987052 -13.2199266 110.55209699 -16.90966797 110.43139648 C-20.90991257 109.60583795 -23.62296051 107.25468416 -26 104 C-26.76104135 100.56992305 -26.44286408 97.40929411 -26.0625 93.9375 C-25.95240601 92.54881714 -25.95240601 92.54881714 -25.84008789 91.13208008 C-25.23603753 84.03124248 -24.26731884 77.0124976 -23 70 C-29.93 70 -36.86 70 -44 70 C-44.28875 72.76375 -44.5775 75.5275 -44.875 78.375 C-45.06083834 80.11592384 -45.2469812 81.85681523 -45.43359375 83.59765625 C-45.80450699 87.08273447 -46.15016635 90.56871902 -46.47265625 94.05859375 C-46.62757453 95.64323206 -46.78252129 97.22786759 -46.9375 98.8125 C-47.0310376 99.91247314 -47.0310376 99.91247314 -47.12646484 101.03466797 C-47.70919955 106.79667406 -49.26088227 110.99737958 -53.0625 115.375 C-57.38300786 117.76506818 -61.17694935 117.85391716 -66 117 C-69.125 115.3125 -69.125 115.3125 -71 112 C-71.93143723 102.22036973 -70.40862744 92.32297954 -69.1875 82.625 C-69.00343983 81.11425295 -68.82001668 79.60342817 -68.63720703 78.0925293 C-67.49978219 68.75028214 -66.27562072 59.4202183 -65.00463867 50.09521484 C-63.98519906 42.41063856 -63.31804832 34.70763268 -62.82177734 26.97192383 C-62.25761905 19.30259084 -61.236947 11.38931363 -56.9375 4.875 C-52.7491929 2.20161249 -48.93730552 1.58131649 -44 2 C-40.09972637 3.95013681 -38.41083709 5.38374437 -36 9 C-36.2867158 13.15737904 -36.98666327 17.01323574 -37.9765625 21.05078125 C-39.20457725 26.5138725 -39.6746274 31.99008612 -40.125 37.5625 C-40.41375 41.006875 -40.7025 44.45125 -41 48 C-34.07 48 -27.14 48 -20 48 C-19.88398438 46.1540625 -19.76796875 44.308125 -19.6484375 42.40625 C-19.07720063 35.01424449 -17.93671106 27.79248888 -16.625 20.5 C-16.41617188 19.26507813 -16.20734375 18.03015625 -15.9921875 16.7578125 C-15.78078125 15.56929687 -15.569375 14.38078125 -15.3515625 13.15625 C-15.16416504 12.09212891 -14.97676758 11.02800781 -14.78369141 9.93164062 C-12.64940055 1.94766413 -8.27447516 -1.26937971 0 0 Z " fill="#040404" transform="translate(283,186)"/>
<path d="M0 0 C3.8076546 2.01159111 7.04834016 4.09668033 9 8 C9.33685596 12.10964271 9.32257863 14.93721863 8.125 18.8828125 C6.36615164 24.81177034 5.60927227 30.95999428 4.6875 37.0625 C4.58117249 37.75388062 4.47484497 38.44526123 4.36529541 39.15759277 C2.88849197 48.82448941 1.68617053 58.50465239 0.66796875 68.23046875 C0.55903793 69.26772598 0.45010712 70.30498322 0.33787537 71.37367249 C-0.19990277 76.53900856 -0.71776445 81.70557909 -1.2121582 86.87524414 C-1.40428621 88.78663853 -1.59657991 90.69801628 -1.7890625 92.609375 C-1.86707596 93.48510666 -1.94508942 94.36083832 -2.02546692 95.2631073 C-2.6137404 100.97723452 -3.57864523 104.99373462 -8.1875 108.8125 C-12.60348794 110.67702824 -16.63593123 110.6389375 -21.3125 109.375 C-23.96350886 107.21491871 -24.83152861 105.21329631 -26 102 C-26.31021948 94.85085111 -25.49061969 88.01016764 -24.5 80.9375 C-24.35691406 79.88111328 -24.21382812 78.82472656 -24.06640625 77.73632812 C-23.71624755 75.15682569 -23.3588693 72.57830501 -23 70 C-29.93 70 -36.86 70 -44 70 C-44.103125 71.835625 -44.20625 73.67125 -44.3125 75.5625 C-44.80937804 82.39982175 -45.54018555 89.19591192 -46.375 96 C-46.48884033 96.9907251 -46.60268066 97.9814502 -46.7199707 99.00219727 C-47.5383696 105.42654668 -48.70867326 110.36150255 -53.0625 115.375 C-57.37514573 117.76071891 -61.18475672 117.86832256 -66 117 C-69.125 115.1875 -69.125 115.1875 -71 112 C-71.88316078 104.08504609 -70.54348006 95.96495346 -69.51898193 88.12356567 C-69.04755878 84.51130049 -68.59958699 80.89609325 -68.1484375 77.28125 C-68.00651474 76.15083031 -68.00651474 76.15083031 -67.86172485 74.99757385 C-66.78328937 66.36181891 -65.82541359 57.7131259 -64.875 49.0625 C-64.79495728 48.33580109 -64.71491455 47.60910217 -64.63244629 46.86038208 C-64.47526476 45.43333821 -64.31825518 44.00627539 -64.16142273 42.57919312 C-64.00796496 41.18421984 -63.85401058 39.7893011 -63.69953918 38.3944397 C-63.28470706 34.63906821 -62.88345643 30.88275539 -62.49780273 27.12426758 C-62.4126944 26.31416733 -62.32758606 25.50406708 -62.23989868 24.66941833 C-62.0768298 23.11662487 -61.917936 21.563385 -61.76400757 20.00965881 C-61.18867327 14.59828457 -60.49098674 9.34481941 -57 5 C-52.71211283 2.37962451 -48.99709095 1.25575241 -44 2 C-41.4352707 3.50012468 -39.10816535 4.89183465 -37 7 C-36.87274905 8.6838556 -36.8241136 10.37388293 -36.8125 12.0625 C-36.79832031 12.98160156 -36.78414062 13.90070313 -36.76953125 14.84765625 C-36.99632473 17.94972981 -37.68936052 20.70933154 -38.48999023 23.70483398 C-39.49777512 28.24010718 -39.75491182 32.87693131 -40.125 37.5 C-40.21136719 38.51320312 -40.29773438 39.52640625 -40.38671875 40.5703125 C-40.59695165 43.04638891 -40.79928841 45.52313361 -41 48 C-34.07 48 -27.14 48 -20 48 C-19.88269531 46.32679687 -19.76539063 44.65359375 -19.64453125 42.9296875 C-19.02949038 35.59443651 -17.91282263 28.38010178 -16.6875 21.125 C-16.48705078 19.84625 -16.28660156 18.5675 -16.08007812 17.25 C-14.11288259 5.58081534 -14.11288259 5.58081534 -10 1 C-6.78548618 -0.60725691 -3.48666924 -0.47397924 0 0 Z " fill="#030303" transform="translate(238,64)"/>
<path d="M0 0 C0.82023148 -0.0066568 1.64046295 -0.0133136 2.48554993 -0.02017212 C4.22300985 -0.03029791 5.96050865 -0.03498916 7.69799805 -0.03466797 C10.33644247 -0.03901825 12.97318225 -0.0752726 15.61132812 -0.11328125 C17.30337973 -0.11915431 18.99543924 -0.12312043 20.6875 -0.125 C21.85825325 -0.14655655 21.85825325 -0.14655655 23.05265808 -0.16854858 C28.52630034 -0.12367092 33.25281592 0.94424768 37.67578125 4.3359375 C40.20304479 8.54700582 40.39542943 12.52971574 39.67578125 17.3359375 C37.88184457 20.20623619 36.69314849 21.82725388 33.67578125 23.3359375 C31.57049192 23.42137645 29.46246968 23.44308475 27.35546875 23.43359375 C26.09863281 23.43037109 24.84179688 23.42714844 23.546875 23.42382812 C22.22816406 23.41544922 20.90945313 23.40707031 19.55078125 23.3984375 C18.21093914 23.39342239 16.87109525 23.38885951 15.53125 23.38476562 C12.24607468 23.37294845 8.96092244 23.35501251 5.67578125 23.3359375 C5.01578125 28.9459375 4.35578125 34.5559375 3.67578125 40.3359375 C6.70765625 40.490625 6.70765625 40.490625 9.80078125 40.6484375 C16.26503917 41.16080539 20.32028533 42.04242832 25.05078125 46.6484375 C27.04995382 49.95476137 27.29715083 51.5300488 26.67578125 55.3359375 C24.54288409 59.22085733 22.45155023 62.01005356 18.67578125 64.3359375 C16.38574219 64.5847168 16.38574219 64.5847168 13.91015625 64.41015625 C13.02070313 64.35537109 12.13125 64.30058594 11.21484375 64.24414062 C10.29445313 64.17130859 9.3740625 64.09847656 8.42578125 64.0234375 C7.48992187 63.96220703 6.5540625 63.90097656 5.58984375 63.83789062 C3.28415673 63.6849624 0.97979032 63.51235148 -1.32421875 63.3359375 C-1.65421875 68.9459375 -1.98421875 74.5559375 -2.32421875 80.3359375 C0.06054688 80.28953125 2.4453125 80.243125 4.90234375 80.1953125 C7.22572707 80.16406981 9.54908652 80.13980907 11.87255859 80.11621094 C13.48073899 80.09616123 15.08884708 80.06891386 16.69677734 80.03417969 C19.01548145 79.98536486 21.3332175 79.96290322 23.65234375 79.9453125 C24.36508453 79.92466736 25.07782532 79.90402222 25.81216431 79.88275146 C30.90998425 79.88048734 33.75730504 81.12634993 37.67578125 84.3359375 C39.57400028 87.3895942 39.67891754 89.16344138 39.61328125 92.7734375 C38.51309564 96.95414283 37.28898784 99.90403498 33.67578125 102.3359375 C29.43255458 103.19965812 25.24362272 103.12401006 20.92578125 103.0859375 C18.48560548 103.11571161 16.04548937 103.15086407 13.60546875 103.19140625 C12.41920898 103.2073584 11.23294922 103.22331055 10.01074219 103.23974609 C5.64596755 103.36564076 1.37384641 103.80763359 -2.94921875 104.3984375 C-17.58086627 106.28685703 -17.58086627 106.28685703 -22.76171875 103.4609375 C-27.27249066 99.72029738 -27.27249066 99.72029738 -27.61181641 97.19897461 C-27.61704845 87.29383847 -26.16488033 77.66995785 -24.69921875 67.8984375 C-24.42700629 66.0524442 -24.15503725 64.20641499 -23.88330078 62.36035156 C-23.18218282 57.62145881 -22.46700833 52.88478677 -21.74853516 48.14849854 C-21.33207799 45.38803207 -20.92268272 42.62661284 -20.515625 39.86474609 C-19.88246202 35.57479138 -19.23306818 31.28761899 -18.57012939 27.00216675 C-18.32472905 25.40355129 -18.08405244 23.80420287 -17.84832764 22.20413208 C-17.51885083 19.97991441 -17.17019843 17.7595243 -16.81640625 15.5390625 C-16.6241748 14.28770508 -16.43194336 13.03634766 -16.23388672 11.74707031 C-13.748779 2.42824985 -9.04750027 0.0254692 0 0 Z " fill="#040404" transform="translate(317.32421875,188.6640625)"/>
<path d="M0 0 C4.16636339 1.75913121 6.24086879 3.83363661 8 8 C8.51546035 10.79254891 8.57999735 13.21373824 8 16 C4.75689482 20.54034725 0.00621735 22.90809532 -4.79296875 25.5703125 C-7.26124109 26.96204733 -7.26124109 26.96204733 -9 30 C-9.58342353 33.45769191 -9.58342353 33.45769191 -9 37 C-6.13957618 40.25496504 -2.33910687 41.91027506 1.4375 43.9375 C10.99937995 49.1088514 17.03112412 55.72625409 21.171875 65.87109375 C23.82108102 75.88059385 22.94180604 85.51408419 17.76953125 94.44140625 C13.26502141 100.95454962 8.38013303 105.1068807 1 108 C0.23816406 108.2990625 -0.52367187 108.598125 -1.30859375 108.90625 C-10.90261853 112.22194497 -20.04804967 112.12154241 -29.45703125 108.265625 C-35.67796496 105.16949209 -40.88374764 101.36234858 -44 95 C-44.5625 91.4375 -44.5625 91.4375 -44 88 C-40.36461556 83.45576945 -37.34006279 81.30334147 -31.625 80.5625 C-26.82937947 81.14128179 -25.48709591 82.75066063 -22 86 C-15.59015038 88.13661654 -9.27293828 87.09097943 -3 85 C-2.06213242 82.18639727 -1.7422781 80.1239633 -1.625 77.1875 C-1.57601562 76.35605469 -1.52703125 75.52460938 -1.4765625 74.66796875 C-2.36310483 70.14924927 -5.15898129 67.31390651 -8.79833984 64.71655273 C-10.79954958 63.47214311 -12.8281736 62.29271173 -14.875 61.125 C-23.22173103 56.13450168 -29.0784587 51.12038463 -33 42 C-34.55243484 32.05960327 -32.55578219 24.27066957 -27 16 C-20.40728136 7.13436313 -11.83501379 -1.80534109 0 0 Z " fill="#040404" transform="translate(418,310)"/>
<path d="M0 0 C3.07732896 2.54978686 4.8045129 4.7376358 5.54296875 8.73828125 C5.80544584 12.50518226 5.54796776 14.30784514 3.3125 17.4375 C-0.1720929 20.08579061 -3.78130138 22.26146029 -7.60546875 24.3828125 C-10.07374109 25.77454733 -10.07374109 25.77454733 -11.8125 28.8125 C-12.73038912 32.18283135 -12.73038912 32.18283135 -11.8125 35.8125 C-9.1381788 38.35467827 -6.02912109 40.03551878 -2.8125 41.8125 C7.44108792 47.54470012 14.85284827 54.14623106 18.8046875 65.6015625 C20.4120956 74.88516441 20.3169253 84.71605418 15.1875 92.8125 C14.81367188 93.44542969 14.43984375 94.07835937 14.0546875 94.73046875 C8.04027708 104.07072865 -1.49710144 107.25721345 -11.8125 109.8125 C-22.29315286 111.27199067 -31.34834473 108.63765447 -39.8125 102.375 C-44.17925357 98.69567812 -46.48695843 96.09129101 -47.3125 90.3125 C-46.67707055 85.86449387 -45.28113294 84.57163984 -41.8125 81.8125 C-38.24605422 79.31598796 -35.08327796 79.24306294 -30.8125 79.8125 C-28.8984375 81.15625 -28.8984375 81.15625 -26.9375 82.8125 C-23.23103975 85.84635935 -20.80418032 86.50682515 -16.05859375 86.13671875 C-14.94677734 85.97623047 -14.94677734 85.97623047 -13.8125 85.8125 C-13.06097656 85.71582031 -12.30945313 85.61914062 -11.53515625 85.51953125 C-9.09594879 85.13783423 -9.09594879 85.13783423 -5.8125 83.8125 C-3.50125341 80.34563012 -3.31202867 76.89968256 -3.8125 72.8125 C-7.44539258 66.08492115 -12.70059273 62.79131606 -19.1875 59.0625 C-27.01218482 54.38333407 -33.25667714 48.83305128 -35.8125 39.8125 C-36.946427 29.81976832 -34.86045815 21.89927017 -29.125 13.6875 C-22.01669555 4.81561622 -12.10428287 -5.11069721 0 0 Z " fill="#040404" transform="translate(148.8125,68.1875)"/>
<path d="M0 0 C2.24897522 -0.00217526 4.49744979 -0.02034634 6.74633789 -0.03930664 C31.21733485 -0.13635026 31.21733485 -0.13635026 39.58422852 6.18530273 C42.16302158 10.33759665 42.29674329 14.42672192 41.58422852 19.18530273 C39.79029184 22.05560142 38.60159575 23.67661912 35.58422852 25.18530273 C34.13323432 25.2012971 32.68114345 25.15111763 31.23266602 25.06420898 C30.38188477 25.01586914 29.53110352 24.9675293 28.65454102 24.91772461 C27.76508789 24.86165039 26.87563477 24.80557617 25.95922852 24.74780273 C25.06204102 24.6955957 24.16485352 24.64338867 23.24047852 24.58959961 C21.02138839 24.45975923 18.8027298 24.32478934 16.58422852 24.18530273 C16.53524414 25.23459961 16.48625977 26.28389648 16.43579102 27.36499023 C15.89028024 38.76768082 15.2521689 50.16425052 14.58422852 61.56030273 C14.54243469 62.27829041 14.50064087 62.99627808 14.45758057 63.73602295 C14.21545702 67.8876426 13.96488037 72.03862222 13.70565796 76.18920898 C13.58401252 78.18885334 13.47303686 80.18890744 13.36279297 82.18920898 C13.28762451 83.4331543 13.21245605 84.67709961 13.13500977 85.95874023 C13.04086792 87.6088208 13.04086792 87.6088208 12.94482422 89.29223633 C12.33858954 94.15606907 10.68663159 97.51787961 6.77172852 100.62280273 C2.23374184 101.78971359 -1.35230887 101.58660938 -5.72827148 99.93530273 C-8.63935319 98.03971464 -9.24586237 97.35709394 -10.41577148 94.18530273 C-11.15059829 84.71743259 -10.18052978 75.0720439 -9.47827148 65.62280273 C-8.76881515 55.6370341 -8.13534902 45.65999665 -7.7578125 35.65576172 C-7.58450756 31.41927178 -7.22543766 27.36077126 -6.41577148 23.18530273 C-7.40577148 23.51530273 -8.39577148 23.84530273 -9.41577148 24.18530273 C-11.87028482 24.3574008 -14.33066067 24.45188711 -16.79077148 24.49780273 C-18.75143555 24.55387695 -18.75143555 24.55387695 -20.75170898 24.61108398 C-24.92938755 24.12561814 -26.49241718 23.13602927 -29.41577148 20.18530273 C-30.57875121 17.85934328 -30.5817784 16.39807043 -30.60327148 13.81030273 C-30.61745117 13.03944336 -30.63163086 12.26858398 -30.64624023 11.47436523 C-30.23858265 7.4254272 -28.89666143 5.58604436 -25.79077148 2.99780273 C-18.12873456 -1.11699487 -8.49822076 -0.00091744 0 0 Z " fill="#040404" transform="translate(172.415771484375,193.814697265625)"/>
<path d="M0 0 C4.88586512 3.25724341 8.09544804 7.27158491 9.8125 12.875 C10.09557823 15.81725348 10.09176953 18.73371657 10.0625 21.6875 C10.07410156 22.84088867 10.07410156 22.84088867 10.0859375 24.01757812 C10.05066926 34.46579348 6.74084772 43.92883949 0.4375 52.3125 C-3.78467471 56.43414674 -7.99225453 58.00760909 -13.8125 58.375 C-17.26816225 58.23982954 -18.11811251 57.92477799 -21.0625 55.8125 C-26.65556443 48.08091093 -27.38625573 40.92272517 -27.4375 31.75 C-27.458125 30.85023438 -27.47875 29.95046875 -27.5 29.0234375 C-27.55109946 20.13213109 -25.89387948 11.92405701 -20.1875 4.875 C-13.90914814 -0.77551668 -8.21808963 -2.90050222 0 0 Z " fill="#FBFBFB" transform="translate(189.1875,331.125)"/>
<path d="M0 0 C4.88586512 3.25724341 8.09544804 7.27158491 9.8125 12.875 C10.09557823 15.81725348 10.09176953 18.73371657 10.0625 21.6875 C10.07410156 22.84088867 10.07410156 22.84088867 10.0859375 24.01757812 C10.05136665 34.25919318 7.17689125 45.51060875 -0.25390625 52.94140625 C-5.66094713 57.07385922 -10.301292 58.5636208 -17.1875 57.875 C-20.36686258 56.79112639 -21.70237725 55.7403541 -23.34375 52.8125 C-28.93067305 40.68089567 -28.90169643 25.99394317 -25.1015625 13.26171875 C-22.65730147 6.87948161 -18.8708347 3.41523083 -13.375 -0.375 C-8.70073255 -1.97760598 -4.54678496 -1.60474763 0 0 Z " fill="#FBFBFB" transform="translate(271.1875,331.125)"/>
<path d="M0 0 C9.35455483 1.77605878 18.50441368 5.95289147 24 14 C26.15191766 18.08864354 26.45904605 21.40953954 26 26 C23.67013736 33.46615072 19.89720728 39.62848513 13.15625 43.73046875 C8.05292842 46.38950141 3.69706374 48.13456063 -2 49 C-2.17143778 38.35776185 -1.63041444 27.80617536 -1 17.1875 C-0.90330596 15.51238938 -0.8069496 13.83725922 -0.7109375 12.16210938 C-0.47784127 8.10783781 -0.24020958 4.05385607 0 0 Z " fill="#F9F9F9" transform="translate(327,336)"/>
</svg>
